<?xml version="1.0" encoding="utf-8"?>
<!-- Generator: Adobe Illustrator 24.3.0, SVG Export Plug-In . SVG Version: 6.00 Build 0)  -->
<svg version="1.1" id="Capa_1" xmlns="http://www.w3.org/2000/svg" xmlns:xlink="http://www.w3.org/1999/xlink" x="0px" y="0px"
	 viewBox="0 0 536 380" style="enable-background:new 0 0 536 380;" xml:space="preserve">
<style type="text/css">
	.st0{fill:#E8EAF6;}
	.st1{filter:url(#Adobe_OpacityMaskFilter);}
	.st2{fill-rule:evenodd;clip-rule:evenodd;fill:#FFFFFF;}
	.st3{mask:url(#b_1_);}
	.st4{fill-rule:evenodd;clip-rule:evenodd;fill:#242A45;}
	.st5{opacity:0.245;fill-rule:evenodd;clip-rule:evenodd;fill:#FFFFFF;enable-background:new    ;}
	.st6{opacity:0.75;fill-rule:evenodd;clip-rule:evenodd;fill:#FFFFFF;enable-background:new    ;}
	.st7{opacity:0.25;fill-rule:evenodd;clip-rule:evenodd;fill:#FFFFFF;enable-background:new    ;}
	.st8{filter:url(#Adobe_OpacityMaskFilter_1_);}
	.st9{mask:url(#d_1_);fill-rule:evenodd;clip-rule:evenodd;fill:#3A499E;}
	.st10{fill-rule:evenodd;clip-rule:evenodd;fill:#306299;}
	.st11{fill-rule:evenodd;clip-rule:evenodd;fill:#FA9E89;}
	.st12{filter:url(#Adobe_OpacityMaskFilter_2_);}
	.st13{opacity:0.152;mask:url(#f_1_);fill-rule:evenodd;clip-rule:evenodd;fill:#FFFFFF;enable-background:new    ;}
	.st14{opacity:0.149;fill-rule:evenodd;clip-rule:evenodd;enable-background:new    ;}
	.st15{opacity:0.128;fill-rule:evenodd;clip-rule:evenodd;enable-background:new    ;}
	.st16{fill-rule:evenodd;clip-rule:evenodd;fill:#162F44;}
	.st17{fill-rule:evenodd;clip-rule:evenodd;fill:#F4F2F9;}
	.st18{fill-rule:evenodd;clip-rule:evenodd;fill:#E0DFEA;}
	.st19{fill-rule:evenodd;clip-rule:evenodd;fill:#6397D9;}
	.st20{fill-rule:evenodd;clip-rule:evenodd;fill:#8BBFF7;}
	.st21{fill-rule:evenodd;clip-rule:evenodd;fill:#E4DCF1;}
	.st22{fill-rule:evenodd;clip-rule:evenodd;fill:#8E2B43;}
	.st23{fill-rule:evenodd;clip-rule:evenodd;fill:#4EC9B4;}
	.st24{opacity:0.184;fill-rule:evenodd;clip-rule:evenodd;fill:#F4F2F9;enable-background:new    ;}
	.st25{fill-rule:evenodd;clip-rule:evenodd;fill:#FFDEDD;}
	.st26{fill-rule:evenodd;clip-rule:evenodd;fill:#FC516B;}
	.st27{fill-rule:evenodd;clip-rule:evenodd;fill:#44AD99;}
	.st28{fill-rule:evenodd;clip-rule:evenodd;fill:#261F27;}
	.st29{fill-rule:evenodd;clip-rule:evenodd;fill:#224A7D;}
	.st30{fill-rule:evenodd;clip-rule:evenodd;fill:#8CC5F2;}
	.st31{fill-rule:evenodd;clip-rule:evenodd;fill:#9B293F;}
	.st32{fill-rule:evenodd;clip-rule:evenodd;fill:#F995A9;}
	.st33{fill-rule:evenodd;clip-rule:evenodd;fill:#51A595;}
	.st34{fill-rule:evenodd;clip-rule:evenodd;fill:#41877A;}
	.st35{fill-rule:evenodd;clip-rule:evenodd;fill:#E6846F;}
	.st36{fill-rule:evenodd;clip-rule:evenodd;fill:#CEC3E2;}
	.st37{fill-rule:evenodd;clip-rule:evenodd;fill:#C3B8D8;}
</style>
<g>
	<g>
		<path id="a_1_" class="st0" d="M56,0h334c4.4,0,8,3.6,8,8v330c0,4.4-3.6,8-8,8H56c-4.4,0-8-3.6-8-8V8C48,3.6,51.6,0,56,0z"/>
	</g>
	<defs>
		<filter id="Adobe_OpacityMaskFilter" filterUnits="userSpaceOnUse" x="44.5" y="0.2" width="547" height="59">
			<feColorMatrix  type="matrix" values="1 0 0 0 0  0 1 0 0 0  0 0 1 0 0  0 0 0 1 0"/>
		</filter>
	</defs>
	<mask maskUnits="userSpaceOnUse" x="44.5" y="0.2" width="547" height="59" id="b_1_">
		<g class="st1">
			<path id="a_2_" class="st2" d="M56,0h334c4.4,0,8,3.6,8,8v330c0,4.4-3.6,8-8,8H56c-4.4,0-8-3.6-8-8V8C48,3.6,51.6,0,56,0z"/>
		</g>
	</mask>
	<g class="st3">
		<path class="st4" d="M44.5,0.2h547v59h-547L44.5,0.2z"/>
		<g transform="translate(22.47 14.197)">
			<circle class="st5" cx="64" cy="16" r="16"/>
			<g transform="translate(47 6)">
				<path class="st6" d="M51,0h114c1.7,0,3,1.3,3,3l0,0c0,1.7-1.3,3-3,3H51c-1.7,0-3-1.3-3-3l0,0C48,1.3,49.3,0,51,0z"/>
				<path class="st7" d="M51,14h58c1.7,0,3,1.3,3,3l0,0c0,1.7-1.3,3-3,3H51c-1.7,0-3-1.3-3-3l0,0C48,15.3,49.3,14,51,14z"/>
			</g>
		</g>
	</g>
	<path class="st2" d="M83,85h221c4.4,0,8,3.6,8,8v18c0,4.4-3.6,8-8,8H83c-4.4,0-8-3.6-8-8V93C75,88.6,78.6,85,83,85z"/>
	<path class="st2" d="M83,133h221c4.4,0,8,3.6,8,8v18c0,4.4-3.6,8-8,8H83c-4.4,0-8-3.6-8-8v-18C75,136.6,78.6,133,83,133z"/>
	<path class="st2" d="M83,181h221c4.4,0,8,3.6,8,8v18c0,4.4-3.6,8-8,8H83c-4.4,0-8-3.6-8-8v-18C75,184.6,78.6,181,83,181z"/>
	<path class="st2" d="M83,229h221c4.4,0,8,3.6,8,8v18c0,4.4-3.6,8-8,8H83c-4.4,0-8-3.6-8-8v-18C75,232.6,78.6,229,83,229z"/>
	<path class="st2" d="M83,277h221c4.4,0,8,3.6,8,8v18c0,4.4-3.6,8-8,8H83c-4.4,0-8-3.6-8-8v-18C75,280.6,78.6,277,83,277z"/>
	<g transform="matrix(-1 0 0 1 440 83)">
		<defs>
			<filter id="Adobe_OpacityMaskFilter_1_" filterUnits="userSpaceOnUse">
				<feColorMatrix  type="matrix" values="1 0 0 0 0  0 1 0 0 0  0 0 1 0 0  0 0 0 1 0"/>
			</filter>
		</defs>
		<mask maskUnits="userSpaceOnUse" id="d_1_">
			<g class="st8">
				<path id="c_1_" class="st2" d="M-48,0h349.8v296H-48V0z"/>
			</g>
		</mask>
		<path class="st9" d="M300.7,250.3c-0.7,2-1.7,4-3.2,5.9c-25.2,33.5-119.4,44.6-212.2,37.8C36.8,290.5,2.6,269.6-19,250.3
			c-4.7-4.2-9.1-8.6-13.4-13.2c-4.7-5.1-8.3-10.9-10.9-16.9c-7.6-17.8-6.2-38.3,5.1-55.2c9.6-14.3,22.7-24.8,29.5-36.5
			C4.3,106.2-64,49.8-19.6,14.1C-3.8,1.6,29.6-1.4,66.1,0.6c44.4,2.4,93.4,12,120.3,20c55.7,16.7,90.6,41,98.5,68.3
			c8,27.3-13.3,39.6-31.9,65.7C235.6,179.1,311.6,217.6,300.7,250.3"/>
		<path class="st10" d="M206.5,90.9l-17-2.9l-2.6,15.8l21,6.2L206.5,90.9z"/>
		<path class="st11" d="M189,89.1c0,0-13.2-0.3-27-6.1l6.5,12.3l18.8,5.7L189,89.1z"/>
		<g transform="translate(2 2)">
			<defs>
				<filter id="Adobe_OpacityMaskFilter_2_" filterUnits="userSpaceOnUse">
					<feColorMatrix  type="matrix" values="1 0 0 0 0  0 1 0 0 0  0 0 1 0 0  0 0 0 1 0"/>
				</filter>
			</defs>
			<mask maskUnits="userSpaceOnUse" id="f_1_">
				<g class="st12">
					<path id="e_1_" class="st2" d="M-48,0h157.8v219.8H-48V0z"/>
				</g>
			</mask>
			<path class="st13" d="M109.1,52.2C101,92.3-36.9,153.9-43.6,219.9c-7.1-17.8-5.7-38.3,4.8-55.1c8.9-14.3,21.1-24.8,27.5-36.5
				C0.7,106-62.9,49.7-21.5,14.1C-6.9,1.6,24.2-1.3,58.2,0.6C68.6,3,116.4,15.9,109.1,52.2"/>
		</g>
		<path class="st14" d="M303.8,243c1,7.9-2.3,13.3-3.6,15.2c-22.4,32.7-144.5,43.6-227.1,36.9C29.9,291.7-5.5,269.4-27,244.9
			L303.8,243z"/>
		<path class="st15" d="M25.6,246.8c0,0-10.1,0.6-9.9,3.7s6.5,9.8,6.5,9.8l-9.5-3.4l-28.7-1.1l3.1,2.7c0,0,23.1,1.1,24.2,1.9
			c1,0.8,14.3,10.8,16.5,11.2c2.3,0.4,146.7,0.2,146.7,0.2s14.9,0.6,17.3-4c2.5-4.6,11.5-4.3,14-0.3c2.5,4,2.1,18.6,2.1,18.6
			s6.8-1.8,7.2-1.9c23.6-10,49.9-41.1,49.9-41.1L25.6,246.8z"/>
		<path class="st16" d="M-5,207.7l14.5,49.2c0,0,2.1,2.4,3.5,0.2l-9.7-50L-5,207.7z M-24.9,206l-7.1,33.1l3.4,3.9l9.6-36L-24.9,206z
			"/>
		<path class="st17" d="M187.5,217.1l6,34.2l1,5.7l-2.2,0.3l-0.2,0l-4.8,0.7c0,0-16-39.3-17.3-48.8c-1.4-9.4,25.1-47.2,25.1-47.2
			l28.8,2.4c0.8,8.2-10.7,23.7-21,35.8C194.8,209.7,187.5,217.1,187.5,217.1"/>
		<path class="st18" d="M187.9,215.5l6.9,39.8l-2.1,0.3l-0.1,0.4l-0.1-0.4c-0.9-3.8-11.1-37.7-11.5-44.6c-0.3-7.3,14-30,14-30
			l8,17.7C195.1,208.2,187.9,215.5,187.9,215.5"/>
		<path class="st19" d="M226,166l-28.7-2.4l-1.3-47.7c0,0,7-24.9,14.7-24.9c4.6,0,9,1.8,11.7,6.2c1.9,3,2.9,7.2,2.6,12.9
			c-0.6,12.8,0.7,48.9,1,55C226,165.7,226,166,226,166"/>
		<path class="st20" d="M218.1,162.3l0.5-56.8L212,91.9l7.8-0.9l2.7,3.2c1.8,3,2.8,7.2,2.5,12.9c-0.6,12.8,0.7,49.8,1,55.9
			L218.1,162.3z"/>
		<path class="st10" d="M218,107l-21,40l-0.5-18l-0.4-14.6l17.5-7.4H218z"/>
		<path class="st2" d="M164.3,270H35.7c-4.8,0-8.7-3.9-8.7-8.7V40.7c0-4.8,3.9-8.7,8.7-8.7h128.7c4.8,0,8.7,3.9,8.7,8.7v220.5
			C173,266.1,169.1,270,164.3,270"/>
		<path class="st21" d="M165,63.3v88.4c0,1.8-1.5,3.3-3.3,3.3H38.3c-1.8,0-3.3-1.5-3.3-3.3V63.3c0-1.8,1.5-3.3,3.3-3.3h123.5
			C163.5,60,165,61.5,165,63.3"/>
		<path class="st22" d="M100.9,84l-1.6,1.2L96,99.6l0.1,2.4l5.2,0.1c0.4,0,0.7-0.1,1-0.2c1.5-0.9,2.1-3.3,1.3-5.5
			c-0.4-1.2-1.6-3.2-1.7-4.1C101.6,89.9,100.9,84,100.9,84"/>
		<path class="st23" d="M128,158l-54.2-0.2l-1.8,0c0,0-6.5-30.6,4-42.5c2.6-2.9,5.9-5,9.5-6.4c11.3-4.3,25.5-1.5,28.5,8
			C118,129.4,128,158,128,158"/>
		<path class="st11" d="M85.8,109.5c0,0,2.2,6,7.1,7.3c4.9,1.3,10.5-3.2,10-8.5c0,0-4.7-0.7-5.4-3c-0.9-2.8-0.3-2.9-0.3-2.9
			s1.8-3.5,2.4-6c0.6-2.5-0.3-12.4-4.6-13.3c-2.7-0.6-7,0.3-10.1,4.8c0,0,1.5,8.6,3.7,12.7C90.8,104.7,91.9,106.6,85.8,109.5"/>
		<path class="st24" d="M161.8,33L29,219.2v42.2c0,4.7,3.7,8.5,8.3,8.5h120.2c5.3,0,9.6-4.4,9.6-9.9V36.8
			C167,33.9,164.7,32.9,161.8,33"/>
		<path class="st23" d="M122,139.4l7-30.4l11,1.8L129.3,155L122,139.4z"/>
		<path class="st11" d="M131.2,108.1l0.6-3.1c0,0-1.8-1.2-1.5-3s-0.3-5.9-0.3-5.9s1-0.6,1.6,0.5c0.4,0.8,1.1,2.7,1.1,2.7
			s2.3-6.2,2.8-7.8c0.2-0.7,0.5-1.8,1-1.6c0.3,0.1,0.2,0.7,0.1,1.3c-0.1,1.8-0.9,4.8-0.9,4.8l0.4,0.2l1.7-5.3
			c0.1-0.3,0.2-0.6,0.5-0.7c0.2,0,0.5,0.1,0.5,0.7c0,1.2-1.3,6.1-1.3,6.1l0.3,0.2l1.9-4.3c0.1-0.3,0.6-0.3,0.7,0
			c0.1,0.3,0,0.7-0.2,1.2c-0.6,1.5-1.2,3.8-1.2,3.8l0.1,0.2l1.1-2.2c0.2-0.3,0.6-0.6,0.8-0.2c0.2,0.5-1.5,5-1.5,5.3
			c0,0.3-1.1,4.3-2.3,4.6s-1.3,3.1-1.3,3.1L131.2,108.1L131.2,108.1z"/>
		<path class="st25" d="M61.6,181H39.3c-1.3,0-2.4-1.1-2.4-2.4v-3.2c0-1.3,1.1-2.4,2.4-2.4h22.3c1.3,0,2.4,1.1,2.4,2.4v3.2
			C64,179.9,62.9,181,61.6,181 M93.6,181H71.3c-1.3,0-2.4-1.1-2.4-2.4v-3.2c0-1.3,1.1-2.4,2.4-2.4h22.3c1.3,0,2.4,1.1,2.4,2.4v3.2
			C96,179.9,94.9,181,93.6,181 M127.6,181h-22.3c-1.3,0-2.4-1.1-2.4-2.4v-3.2c0-1.3,1.1-2.4,2.4-2.4h22.3c1.3,0,2.4,1.1,2.4,2.4v3.2
			C130,179.9,128.9,181,127.6,181 M159.6,181h-22.3c-1.3,0-2.4-1.1-2.4-2.4v-3.2c0-1.3,1.1-2.4,2.4-2.4h22.3c1.3,0,2.4,1.1,2.4,2.4
			v3.2C162,179.9,160.9,181,159.6,181"/>
		<path class="st17" d="M157.5,200H39.5c-1.4,0-2.5-1.1-2.5-2.4v-3.2c0-1.3,1.1-2.4,2.5-2.4h117.9c1.4,0,2.5,1.1,2.5,2.4v3.2
			C160,198.9,158.9,200,157.5,200 M39.5,216c-1.4,0-2.5-1.1-2.5-2.4v-3.2c0-1.3,1.1-2.4,2.5-2.4h117.9c1.4,0,2.5,1.1,2.5,2.4v3.2
			c0,1.3-1.1,2.4-2.5,2.4H39.5z M157.5,232H39.5c-1.4,0-2.5-1.1-2.5-2.4v-3.2c0-1.3,1.1-2.4,2.5-2.4h117.9c1.4,0,2.5,1.1,2.5,2.4
			v3.2C160,230.9,158.9,232,157.5,232 M157.5,245H39.5c-1.4,0-2.5-1.1-2.5-2.4v-3.2c0-1.3,1.1-2.4,2.5-2.4h117.9
			c1.4,0,2.5,1.1,2.5,2.4v3.2C160,243.9,158.9,245,157.5,245"/>
		<path class="st26" d="M82.8,80.3c0,0,6.3-8.8,18.2-3.7c11.9,5.1-1,13.5-1,13.5s-0.3-3.3-2.1-4.2l0.2,2.9L91.3,90l-1.1-2.8
			l-0.7,3.2l-3.4,1.2c0,0,2.7,9.6,4.3,11c0,0,0.7,2.2,0.5,2.7c-0.2,0.5-10.4,3-11.7,0.7c-1.3-2.3,1.4-5.6,2.2-7.8
			C82.4,96.1,80,84.6,82.8,80.3"/>
		<path class="st21" d="M53.6,56H36.4c-1.3,0-2.4-1.3-2.4-3s1.1-3,2.4-3h17.3c1.3,0,2.4,1.3,2.4,3S54.9,56,53.6,56"/>
		<path class="st27" d="M80,128c0,0,2.7,19.3,5.7,27h16.1c0,0,2.6-8.1-10-10.8C82.9,142.3,80,128,80,128 M111.6,123
			c0,0,3.3,10,2.6,13c-0.6,3-3.3,5.2-3.3,7.2s1.6,9.6,1.6,9.6l9.4,0.2c0,0-1.6-0.3-5.1-3.1c-5.4-4.2-0.8-13.6-1.9-18.9
			C114.4,128.2,111.6,123,111.6,123 M122,138.8c0,0,0.2,8.4,1.9,7.1s0.6-13.8,2.1-18.1c1.5-4.3,6-18.1,6-18.1l-3.8-0.8L122,138.8z"
			/>
		<path class="st11" d="M147.4,100.5c0,0,1.6,0.7,3.5,3c0.6,0.8,4,2,4.8,3c11.6,14,27.2,24.8,37.2,20.5
			c12.7-5.5,15.1-10.6,15.1-10.6l-8.4-11.4c0,0-9.7,14.8-17.4,10.7c-7.8-4-23.1-14.6-23.1-14.6l-0.4-6.5c0,0-0.9-0.2-1.3,1
			c-0.4,1.2-0.4,2.3-0.4,2.3l-6-7c0,0-1.2-0.4-0.8,0.8c0.4,1.1,2.5,4.4,2.5,4.4s0.2,0.6-0.2,0.3c-0.5-0.3-4.8-5.1-4.8-5.1
			s-1-0.1-0.6,0.9c0.3,0.7,2.9,4.1,3.7,5.4c0.3,0.4-0.3,0.2-0.3,0.2l-3.5-3c-0.5-0.3-1-0.2-0.9,0.4c0.1,0.5,1,1.5,1.6,1.9
			c1.4,1,2.4,3,2.4,3l-3-1.1C147,99.1,146.4,99.6,147.4,100.5 M219,63.5l-3.9,28.3L202.5,94c0,0,0.6-0.7,1.4-1.6
			c0.7-0.9,1.6-2.1,2-3c0.9-2.1,0.9-4.1,0.9-4.1s-5.6,0.6-6.5-2.6c-0.9-3.2,1.1-18.3,1.1-18.3S203.9,55.1,219,63.5"/>
		<path class="st28" d="M208.4,63.8c0,0-6.2,4.7-12.2,0.7c0,0,3.8-0.3,5-2.3c0,0-2.4,0.6-5.1-3.3c0,0,4.9,0.7,6.6-0.8
			c1.7-1.5,10.3-3.8,15.4-0.3c5.1,3.6,5.1,6.2,5.1,6.2s3,1.1,3,2.9c-0.1,1.7-7.5,16-7.5,16l-1.6-6.4c0,0,1.3,0.4,2-2.6
			c0.8-3-2.5-1.7-2.9-1.1c-0.3,0.6-2.5-4.2-2.5-4.2l0.3-2.8C213.9,66,215,62.4,208.4,63.8"/>
		<path class="st2" d="M220.2,196.4c-3.6,14.5,3,72.4,3,72.4l-6.5,1.2c-26.2-60-20.2-109-20.2-109l29.4,2.4c0,0-0.1-1.2-0.1-0.9
			C225.6,165.5,223.5,183.2,220.2,196.4"/>
		<path class="st19" d="M187.7,254.1l-7.6,5.9c0,0-3-0.4-3.5,1c-0.6,1.4-0.6,2.9-0.6,2.9l7.9,0.1l13.1-5.2l-2.1-5.8L187.7,254.1z
			 M217.5,271.3c0,0-2.7,4.3-5.4,7.9c-0.9,1.2-3.1,1.7-4,4.6c-0.7,2.5,0.7,4.2,0.7,4.2s5-0.9,8.4-4c3.5-3.1,8.6-8.9,8.6-8.9
			l-1.4-5.1L217.5,271.3L217.5,271.3z"/>
		<path class="st29" d="M18,199c0,3.9-13,7-29,7s-29-3.1-29-7s13-7,29-7S18,195.1,18,199"/>
		<path class="st19" d="M18,198c0,3.9-13,7-29,7s-29-3.1-29-7s13-7,29-7S18,194.1,18,198"/>
		<path class="st16" d="M-3,194c0,1.7-5.4,3-12,3s-12-1.3-12-3s5.4-3,12-3S-3,192.3-3,194 M-40,197v4c0,0,0.1,2.5,5,4l-1.2-4.3
			C-36.2,200.7-39.6,199.2-40,197"/>
		<path class="st30" d="M18,197v4.1c0,0,0.4,2-5,3.9l1.7-4.8C14.7,200.2,17.5,199,18,197"/>
		<path class="st26" d="M-1,184l-2,7.7c-0.5,1.9-2.4,3.3-4.7,3.3h-4.2c-1.6,0-3-0.7-3.9-1.8c-0.3-0.4-0.5-0.8-0.7-1.3l-1.7-5.3
			L-19,184L-1,184z"/>
		<path class="st31" d="M-1,183c0,0.6-4,1-9,1s-9-0.4-9-1s4-1,9-1S-1,182.4-1,183"/>
		<path class="st32" d="M-13.4,193.7c0.4,0.1,0.7,0.3,1,0.3l-2.1-0.3c-0.3-0.4-0.5-0.9-0.7-1.4l-1.6-5.6c-0.1-0.3-0.2-0.7-0.2-0.7
			c0,0,4.2,1.2,8,0.8c-1.2,0.2-4.3,0.4-6.2,0.3c-0.4,0-0.7,0.3-0.8,0.7c0,0,0,0.1,0,0.1C-15.7,189.6-15,193-13.4,193.7"/>
		<path class="st33" d="M-9,180.9l-0.7,3.1l-0.5,0c0,0,0-3.1-3.7-5c-3.7-1.9-3.1-9-3.1-9l0,0c0.1,0.2,1.5,3.1,2.5,3.3
			c1.1,0.2,1.8,1.9,1.8,1.9s0.5,0.8,1.1,0.6c0.6-0.1,1.3,1.5,1.3,1.5l0.2,1.8C-10,179.1-9,180.9-9,180.9z"/>
		<path class="st23" d="M-14,187c0,0-0.7-23.4,11.6-30c0,0,3.5,1.4-0.6,7c-4.1,5.6-0.8,9.7-2.6,11.1c-1.8,1.5-4.4,2.4-4,4.3
			s-0.1,3.7-0.9,4c-0.8,0.2-2.6,1.3-2.9,3.7L-14,187L-14,187z"/>
		<path class="st34" d="M-14,182.8l0,1.2l-0.5,0c0,0,0-3.1-4-5c-4-1.9-3.4-9-3.4-9l0,0l0.3,1.1c0,6.4,3.7,7.8,5.2,8.6
			S-14,182.8-14,182.8"/>
		<path class="st10" d="M205.8,94.1c0,0,10.6,0.2,11.5-1.1l0.7,1.9c0,0-8.4,4.6-14,2.6L205.8,94.1z"/>
		<path class="st30" d="M191,107.9l12.6,14.1c0,0,16.8-15.1,16.4-19.8c-0.4-4.7-6.6-14.5-16-5.5C194.8,105.4,191,107.9,191,107.9"/>
		<path class="st17" d="M223.4,269.7l-2.6,0.3c0,0-12-42.5-8.1-73.8c1.2-9.4,5.3-33.2,5.3-33.2l7.9,0.7c-0.3,3-2.4,19.9-5.4,33.1
			C217.2,211.4,223.4,269.7,223.4,269.7"/>
		<path class="st35" d="M209.7,92.6c-1.5,0.3-2.3,0.4-2.7,0.4c0.7-1,1.5-2.2,1.8-3.2c0.8-2.2,0.8-4.3,0.8-4.3s3-0.8,3.3-0.4
			C213.2,85.5,212.9,91.9,209.7,92.6"/>
		<path class="st36" d="M64,96c0,10.5-8,19-18,19c-4.2,0-8-1.5-11-4V81c3-2.5,6.9-4,11-4C56,77,64,85.5,64,96"/>
		<path class="st37" d="M64,96.5c0,10.2-7.5,18.5-16.7,18.5c-3.9,0-7.4-1.5-10.3-3.9V81.9c2.8-2.4,6.4-3.9,10.3-3.9
			C56.5,78,64,86.3,64,96.5"/>
		<path class="st27" d="M90,113.1c0,0-2-1.1-2.3-1.3c-0.3-0.2-4.4,0.9-9.8,6.5c-5.4,5.6-0.7,10.3-3,13.3c-2.3,3-0.1,9.3,1,13.6
			c1.2,4.3,0,9.7,0,9.7l-0.1,0l-1.8,0c0,0-6.6-28.9,4.1-40c2.6-2.7,6-4.7,9.6-6L90,113.1L90,113.1z"/>
	</g>
</g>
</svg>
