<svg width="148" height="25" xmlns="http://www.w3.org/2000/svg">

 <g>
  <title>background</title>
  <rect fill="none" id="canvas_background" height="602" width="802" y="-1" x="-1"/>
 </g>
 <g>
  <title>Layer 1</title>
  <g id="svg_1" fill-rule="evenodd" fill="none">
   <path id="svg_2" fill-rule="nonzero" fill="#ffffff" d="m37,6.299l5.227,0c0.746,0 1.434,0.155 2.062,0.466c0.629,0.311 1.123,0.735 1.484,1.27s0.542,1.12 0.542,1.754c0,0.672 -0.165,1.254 -0.495,1.746c-0.33,0.491 -0.762,0.868 -1.297,1.129l0,0.15c0.697,0.248 1.25,0.643 1.661,1.185c0.41,0.541 0.616,1.191 0.616,1.95c0,0.735 -0.196,1.385 -0.588,1.951a3.817,3.817 0 0 1 -1.587,1.307c-0.665,0.305 -1.403,0.457 -2.212,0.457l-5.413,0l0,-13.365zm5.04,5.45c0.548,0 0.986,-0.152 1.316,-0.457c0.33,-0.305 0.495,-0.688 0.495,-1.148c0,-0.448 -0.159,-0.824 -0.476,-1.13c-0.318,-0.304 -0.738,-0.457 -1.26,-0.457l-2.595,0l0,3.192l2.52,0zm0.28,5.619c0.61,0 1.086,-0.159 1.428,-0.476c0.342,-0.317 0.513,-0.731 0.513,-1.241c0,-0.51 -0.174,-0.927 -0.522,-1.251c-0.349,-0.324 -0.847,-0.485 -1.494,-0.485l-2.725,0l0,3.453l2.8,0zm12.927,2.595c-1.307,0 -2.492,-0.308 -3.556,-0.924a6.711,6.711 0 0 1 -2.511,-2.53c-0.61,-1.07 -0.915,-2.246 -0.915,-3.528c0,-1.281 0.305,-2.457 0.915,-3.528a6.711,6.711 0 0 1 2.51,-2.529c1.066,-0.616 2.25,-0.924 3.558,-0.924c1.306,0 2.492,0.308 3.556,0.924a6.711,6.711 0 0 1 2.51,2.53c0.61,1.07 0.915,2.246 0.915,3.527c0,1.282 -0.305,2.458 -0.915,3.528a6.711,6.711 0 0 1 -2.51,2.53c-1.064,0.616 -2.25,0.924 -3.556,0.924l-0.001,0zm0,-2.39a4.52,4.52 0 0 0 2.258,-0.578a4.177,4.177 0 0 0 1.615,-1.624c0.392,-0.697 0.588,-1.494 0.588,-2.39c0,-0.896 -0.196,-1.692 -0.588,-2.389a4.177,4.177 0 0 0 -1.615,-1.624a4.52,4.52 0 0 0 -2.258,-0.579a4.47,4.47 0 0 0 -2.25,0.579a4.195,4.195 0 0 0 -1.605,1.624c-0.392,0.697 -0.588,1.493 -0.588,2.39c0,0.895 0.196,1.692 0.588,2.389a4.195,4.195 0 0 0 1.605,1.624a4.47,4.47 0 0 0 2.25,0.578zm15.353,2.39c-1.307,0 -2.492,-0.308 -3.556,-0.924a6.711,6.711 0 0 1 -2.51,-2.53c-0.61,-1.07 -0.915,-2.246 -0.915,-3.528c0,-1.281 0.305,-2.457 0.914,-3.528a6.711,6.711 0 0 1 2.511,-2.529c1.064,-0.616 2.25,-0.924 3.556,-0.924c1.307,0 2.492,0.308 3.556,0.924a6.711,6.711 0 0 1 2.51,2.53c0.61,1.07 0.915,2.246 0.915,3.527c0,1.282 -0.305,2.458 -0.914,3.528a6.711,6.711 0 0 1 -2.511,2.53c-1.064,0.616 -2.25,0.924 -3.556,0.924zm0,-2.39a4.52,4.52 0 0 0 2.259,-0.578a4.177,4.177 0 0 0 1.614,-1.624c0.392,-0.697 0.588,-1.494 0.588,-2.39c0,-0.896 -0.196,-1.692 -0.588,-2.389a4.177,4.177 0 0 0 -1.614,-1.624a4.52,4.52 0 0 0 -2.259,-0.579a4.47,4.47 0 0 0 -2.25,0.579a4.195,4.195 0 0 0 -1.605,1.624c-0.392,0.697 -0.588,1.493 -0.588,2.39c0,0.895 0.196,1.692 0.588,2.389a4.195,4.195 0 0 0 1.606,1.624a4.47,4.47 0 0 0 2.249,0.578zm9.23,-11.273l2.52,0l0,5.73l0.15,0l4.89,-5.73l3.043,0l0,0.149l-4.833,5.524l5.338,7.542l0,0.149l-3.08,0l-3.994,-5.693l-1.512,1.773l0,3.92l-2.52,0l0,-13.365l-0.002,0.001zm13.949,-0.3l3.248,0l3.546,9.39l0.15,0l3.545,-9.39l3.267,0l0,13.365l-2.501,0l0,-6.589l0.15,-2.221l-0.15,0l-3.398,8.81l-1.96,0l-3.416,-8.81l-0.149,0l0.15,2.221l0,6.59l-2.483,0l0,-13.366l0.001,0zm20.8,0l2.894,0l5.021,13.365l-2.781,0l-1.12,-3.192l-5.115,0l-1.12,3.192l-2.781,0l5.002,-13.365zm3.193,7.859l-1.176,-3.36l-0.486,-1.606l-0.149,0l-0.485,1.606l-1.195,3.36l3.49,0l0.001,0zm6.781,-7.859l4.872,0c0.871,0 1.646,0.18 2.324,0.541c0.678,0.361 1.204,0.862 1.577,1.503c0.374,0.64 0.56,1.366 0.56,2.175c0,0.858 -0.27,1.62 -0.812,2.286a4.617,4.617 0 0 1 -2.044,1.447l-0.018,0.13l3.584,5.134l0,0.15l-2.894,0l-3.453,-5.022l-1.176,0l0,5.021l-2.52,0l0,-13.365zm4.853,6.03c0.573,0 1.04,-0.175 1.4,-0.523c0.361,-0.349 0.542,-0.79 0.542,-1.326c0,-0.51 -0.172,-0.945 -0.514,-1.306c-0.342,-0.361 -0.806,-0.542 -1.39,-0.542l-2.371,0l0,3.696l2.333,0l0,0.001zm7.23,-6.03l2.52,0l0,5.73l0.15,0l4.89,-5.73l3.043,0l0,0.15l-4.835,5.525l5.34,7.541l0,0.15l-3.08,0l-3.996,-5.694l-1.512,1.773l0,3.92l-2.52,0l0,-13.365z"/>
   <g id="svg_3">
    <circle id="svg_4" r="12.5" cy="12.5" cx="12.5" fill="#5267DF"/>
    <path id="svg_5" fill="#FFF" d="m9,9l0,10l3.54,-3.44l3.538,3.44l0,-10a2,2 0 0 0 -2,-2l-3.078,0a2,2 0 0 0 -2,2z"/>
   </g>
  </g>
 </g>
</svg>